BARBAROSSA PART 1 2009 R5 XviD

Format                           : AVI
Format/Info                      : Audio Video Interleave
File size                        : 648 MiB
Duration                         : 1h 43mn
Overall bit rate                 : 438 Kbps
Writing application              : MEncoder SVN-r29352(20090610-gcc4.3.3)
Writing library                  : MPlayer

Video
ID                               : 0
Format                           : MPEG-4 Visual
Format profile                   : AdvancedSimple@L5
Format settings, BVOP            : Yes
Format settings, QPel            : No
Format settings, GMC             : No warppoints
Format settings, Matrix          : Default (H.263)
Codec ID                         : XVID
Codec ID/Hint                    : XviD
Duration                         : 1h 43mn
Bit rate                         : 768 Kbps
Width                            : 640 pixels
Height                           : 360 pixels
Display aspect ratio             : 1.957
Frame rate                       : 25.000 fps
Resolution                       : 24 bits
Colorimetry                      : 4:2:0
Scan type                        : Progressive
Bits/(Pixel*Frame)               : 0.133
Stream size                      : 568 MiB (88%)
Writing library                  : XviD 1.2.1 (UTC 2008-12-04)

Audio
ID                               : 1
Format                           : MPEG Audio
Format version                   : Version 2
Format profile                   : Layer 3
Codec ID                         : 55
Codec ID/Hint                    : MP3
Duration                         : 1h 43mn
Bit rate mode                    : Constant
Bit rate                         : 96.0 Kbps
Channel(s)                       : 2 channels
Sampling rate                    : 22.05 KHz
Resolution                       : 16 bits
Video delay                      : 40ms
Stream size                      : 71.0 MiB (11%)
Alignment                        : Aligned on interleaves
Interleave, duration             : 26 ms (0.65 video frame)
Interleave, preload duration     : 522 ms
Writing library                  : LAME3.98

Italy , XII century . Il sogno di Federico I Barbarossa ( Rutger Hauer ) è quello di creare un impero universale, mediante il controllo politico sui Comuni italiani del Nord e sul Regno di Sicilia . The dream of Frederick I Barbarossa ( Rutger Hauer ) is to create a world empire, through political control over the Northern Italian communes and the Kingdom of Sicily . Più volte l'imperatore scende in Italia per ripristinare la supremazia nei confronti delle mire autonomiste dei Comuni. Several times the emperor comes to Italy to restore the supremacy towards the aims of municipalities. In un'occasione l'imperatore tedesco viene fortunosamente salvato da un giovane ragazzo milanese figlio di fabbri, Alberto. On one occasion the German Emperor is luckily saved by a young boy smiths son of Milan, Alberto. Ma il Barbarossa passa alle vie di fatto, mandando l'esercito imperiale a compiere spedizioni punitive contro molte città alleate di Milano, e infine assedia Milano e il 10 marzo del 1162 la invade con le sue truppe, radendola al suolo. But Barbarossa goes to assault, sending the imperial army to take punitive actions against many allied cities of Milan, and finally besieging Milan and 10 March of 1162 with the invading troops, razed to the ground. Nello scontro muoiono i due fratelli di Alberto, uno dei quali, Otto, è ucciso da Alberto medesimo in un tragico tentativo di difendere le mura di Milano. Die in battle the two brothers Albert, of which one, eight and killed Alberto same in a tragic attempt to defend the walls of Milan. 
http://www.imdb.com/title/tt1242516/

PLEASE SEED AND ENJOY THANKS

NOTE-> This is a recode from PRISMS 1.38GB version thanks to PRISM for the original print thats all i,ve done is recoded it to a smaller file size.this is dubbed into english audio and i will be uploading part 2 after this one 

screen shots 
http://img526.imageshack.us/img526/5797/barbarossa1xvidviceavit.jpg